<?xml version="1.0" encoding="UTF-8"?>
<svg xmlns="http://www.w3.org/2000/svg" width="1229" height="827">
   <defs>
      <style type="text/css">
    @namespace "http://www.w3.org/2000/svg";
    .line                 {fill: none; stroke: #332900; stroke-width: 1;}
    .bold-line            {stroke: #141000; shape-rendering: crispEdges; stroke-width: 2;}
    .thin-line            {stroke: #1F1800; shape-rendering: crispEdges}
    .filled               {fill: #332900; stroke: none;}
    text.terminal         {font-family: Verdana, Sans-serif;
                            font-size: 12px;
                            fill: #141000;
                            font-weight: bold;
                          }
    text.nonterminal      {font-family: Verdana, Sans-serif;
                            font-size: 12px;
                            fill: #1A1400;
                            font-weight: normal;
                          }
    text.regexp           {font-family: Verdana, Sans-serif;
                            font-size: 12px;
                            fill: #1F1800;
                            font-weight: normal;
                          }
    rect, circle, polygon {fill: #332900; stroke: #332900;}
    rect.terminal         {fill: #FFDB4D; stroke: #332900; stroke-width: 1;}
    rect.nonterminal      {fill: #FFEC9E; stroke: #332900; stroke-width: 1;}
    rect.text             {fill: none; stroke: none;}
    polygon.regexp        {fill: #FFF4C7; stroke: #332900; stroke-width: 1;}
  </style>
   </defs>
   <polygon points="9 17 1 13 1 21"/>
   <polygon points="17 17 9 13 9 21"/>
   <rect x="31" y="3" width="58" height="32" rx="10"/>
   <rect x="29"
         y="1"
         width="58"
         height="32"
         class="terminal"
         rx="10"/>
   <text class="terminal" x="39" y="21">LOAD</text>
   <rect x="109" y="3" width="56" height="32" rx="10"/>
   <rect x="107"
         y="1"
         width="56"
         height="32"
         class="terminal"
         rx="10"/>
   <text class="terminal" x="117" y="21">DATA</text>
   <rect x="205" y="35" width="130" height="32" rx="10"/>
   <rect x="203"
         y="33"
         width="130"
         height="32"
         class="terminal"
         rx="10"/>
   <text class="terminal" x="213" y="53">LOW_PRIORITY</text>
   <rect x="205" y="79" width="114" height="32" rx="10"/>
   <rect x="203"
         y="77"
         width="114"
         height="32"
         class="terminal"
         rx="10"/>
   <text class="terminal" x="213" y="97">CONCURRENT</text>
   <rect x="395" y="35" width="64" height="32" rx="10"/>
   <rect x="393"
         y="33"
         width="64"
         height="32"
         class="terminal"
         rx="10"/>
   <text class="terminal" x="403" y="53">LOCAL</text>
   <rect x="499" y="3" width="66" height="32" rx="10"/>
   <rect x="497"
         y="1"
         width="66"
         height="32"
         class="terminal"
         rx="10"/>
   <text class="terminal" x="507" y="21">INFILE</text>
   <a xmlns:xlink="http://www.w3.org/1999/xlink"
      xlink:href="#file_name"
      xlink:title="file_name">
      <rect x="585" y="3" width="82" height="32"/>
      <rect x="583" y="1" width="82" height="32" class="nonterminal"/>
      <text class="nonterminal" x="593" y="21">file_name</text>
   </a>
   <rect x="707" y="35" width="80" height="32" rx="10"/>
   <rect x="705"
         y="33"
         width="80"
         height="32"
         class="terminal"
         rx="10"/>
   <text class="terminal" x="715" y="53">REPLACE</text>
   <rect x="707" y="79" width="74" height="32" rx="10"/>
   <rect x="705"
         y="77"
         width="74"
         height="32"
         class="terminal"
         rx="10"/>
   <text class="terminal" x="715" y="97">IGNORE</text>
   <rect x="827" y="3" width="56" height="32" rx="10"/>
   <rect x="825"
         y="1"
         width="56"
         height="32"
         class="terminal"
         rx="10"/>
   <text class="terminal" x="835" y="21">INTO</text>
   <rect x="903" y="3" width="62" height="32" rx="10"/>
   <rect x="901"
         y="1"
         width="62"
         height="32"
         class="terminal"
         rx="10"/>
   <text class="terminal" x="911" y="21">TABLE</text>
   <a xmlns:xlink="http://www.w3.org/1999/xlink"
      xlink:href="#tbl_name"
      xlink:title="tbl_name">
      <rect x="185" y="189" width="80" height="32"/>
      <rect x="183" y="187" width="80" height="32" class="nonterminal"/>
      <text class="nonterminal" x="193" y="207">tbl_name</text>
   </a>
   <rect x="305" y="189" width="98" height="32" rx="10"/>
   <rect x="303"
         y="187"
         width="98"
         height="32"
         class="terminal"
         rx="10"/>
   <text class="terminal" x="313" y="207">PARTITION</text>
   <rect x="423" y="189" width="26" height="32" rx="10"/>
   <rect x="421"
         y="187"
         width="26"
         height="32"
         class="terminal"
         rx="10"/>
   <text class="terminal" x="431" y="207">(</text>
   <a xmlns:xlink="http://www.w3.org/1999/xlink"
      xlink:href="#partition_name"
      xlink:title="partition_name">
      <rect x="489" y="189" width="116" height="32"/>
      <rect x="487" y="187" width="116" height="32" class="nonterminal"/>
      <text class="nonterminal" x="497" y="207">partition_name</text>
   </a>
   <rect x="489" y="145" width="24" height="32" rx="10"/>
   <rect x="487"
         y="143"
         width="24"
         height="32"
         class="terminal"
         rx="10"/>
   <text class="terminal" x="497" y="163">,</text>
   <rect x="645" y="189" width="26" height="32" rx="10"/>
   <rect x="643"
         y="187"
         width="26"
         height="32"
         class="terminal"
         rx="10"/>
   <text class="terminal" x="653" y="207">)</text>
   <rect x="731" y="221" width="102" height="32" rx="10"/>
   <rect x="729"
         y="219"
         width="102"
         height="32"
         class="terminal"
         rx="10"/>
   <text class="terminal" x="739" y="239">CHARACTER</text>
   <rect x="853" y="221" width="44" height="32" rx="10"/>
   <rect x="851"
         y="219"
         width="44"
         height="32"
         class="terminal"
         rx="10"/>
   <text class="terminal" x="861" y="239">SET</text>
   <a xmlns:xlink="http://www.w3.org/1999/xlink"
      xlink:href="#charset_name"
      xlink:title="charset_name">
      <rect x="917" y="221" width="110" height="32"/>
      <rect x="915" y="219" width="110" height="32" class="nonterminal"/>
      <text class="nonterminal" x="925" y="239">charset_name</text>
   </a>
   <rect x="65" y="303" width="70" height="32" rx="10"/>
   <rect x="63"
         y="301"
         width="70"
         height="32"
         class="terminal"
         rx="10"/>
   <text class="terminal" x="73" y="321">FIELDS</text>
   <rect x="65" y="347" width="88" height="32" rx="10"/>
   <rect x="63"
         y="345"
         width="88"
         height="32"
         class="terminal"
         rx="10"/>
   <text class="terminal" x="73" y="365">COLUMNS</text>
   <rect x="213" y="335" width="108" height="32" rx="10"/>
   <rect x="211"
         y="333"
         width="108"
         height="32"
         class="terminal"
         rx="10"/>
   <text class="terminal" x="221" y="353">TERMINATED</text>
   <rect x="341" y="335" width="38" height="32" rx="10"/>
   <rect x="339"
         y="333"
         width="38"
         height="32"
         class="terminal"
         rx="10"/>
   <text class="terminal" x="349" y="353">BY</text>
   <a xmlns:xlink="http://www.w3.org/1999/xlink"
      xlink:href="#string"
      xlink:title="string">
      <rect x="399" y="335" width="56" height="32"/>
      <rect x="397" y="333" width="56" height="32" class="nonterminal"/>
      <text class="nonterminal" x="407" y="353">string</text>
   </a>
   <rect x="535" y="367" width="110" height="32" rx="10"/>
   <rect x="533"
         y="365"
         width="110"
         height="32"
         class="terminal"
         rx="10"/>
   <text class="terminal" x="543" y="385">OPTIONALLY</text>
   <rect x="685" y="335" width="92" height="32" rx="10"/>
   <rect x="683"
         y="333"
         width="92"
         height="32"
         class="terminal"
         rx="10"/>
   <text class="terminal" x="693" y="353">ENCLOSED</text>
   <rect x="797" y="335" width="38" height="32" rx="10"/>
   <rect x="795"
         y="333"
         width="38"
         height="32"
         class="terminal"
         rx="10"/>
   <text class="terminal" x="805" y="353">BY</text>
   <a xmlns:xlink="http://www.w3.org/1999/xlink"
      xlink:href="#char"
      xlink:title="char">
      <rect x="855" y="335" width="46" height="32"/>
      <rect x="853" y="333" width="46" height="32" class="nonterminal"/>
      <text class="nonterminal" x="863" y="353">char</text>
   </a>
   <rect x="961" y="335" width="82" height="32" rx="10"/>
   <rect x="959"
         y="333"
         width="82"
         height="32"
         class="terminal"
         rx="10"/>
   <text class="terminal" x="969" y="353">ESCAPED</text>
   <rect x="1063" y="335" width="38" height="32" rx="10"/>
   <rect x="1061"
         y="333"
         width="38"
         height="32"
         class="terminal"
         rx="10"/>
   <text class="terminal" x="1071" y="353">BY</text>
   <a xmlns:xlink="http://www.w3.org/1999/xlink"
      xlink:href="#char"
      xlink:title="char">
      <rect x="1121" y="335" width="46" height="32"/>
      <rect x="1119" y="333" width="46" height="32" class="nonterminal"/>
      <text class="nonterminal" x="1129" y="353">char</text>
   </a>
   <rect x="292" y="449" width="62" height="32" rx="10"/>
   <rect x="290"
         y="447"
         width="62"
         height="32"
         class="terminal"
         rx="10"/>
   <text class="terminal" x="300" y="467">LINES</text>
   <rect x="394" y="481" width="90" height="32" rx="10"/>
   <rect x="392"
         y="479"
         width="90"
         height="32"
         class="terminal"
         rx="10"/>
   <text class="terminal" x="402" y="499">STARTING</text>
   <rect x="504" y="481" width="38" height="32" rx="10"/>
   <rect x="502"
         y="479"
         width="38"
         height="32"
         class="terminal"
         rx="10"/>
   <text class="terminal" x="512" y="499">BY</text>
   <a xmlns:xlink="http://www.w3.org/1999/xlink"
      xlink:href="#string"
      xlink:title="string">
      <rect x="562" y="481" width="56" height="32"/>
      <rect x="560" y="479" width="56" height="32" class="nonterminal"/>
      <text class="nonterminal" x="570" y="499">string</text>
   </a>
   <rect x="678" y="481" width="108" height="32" rx="10"/>
   <rect x="676"
         y="479"
         width="108"
         height="32"
         class="terminal"
         rx="10"/>
   <text class="terminal" x="686" y="499">TERMINATED</text>
   <rect x="806" y="481" width="38" height="32" rx="10"/>
   <rect x="804"
         y="479"
         width="38"
         height="32"
         class="terminal"
         rx="10"/>
   <text class="terminal" x="814" y="499">BY</text>
   <a xmlns:xlink="http://www.w3.org/1999/xlink"
      xlink:href="#string"
      xlink:title="string">
      <rect x="864" y="481" width="56" height="32"/>
      <rect x="862" y="479" width="56" height="32" class="nonterminal"/>
      <text class="nonterminal" x="872" y="499">string</text>
   </a>
   <rect x="295" y="623" width="74" height="32" rx="10"/>
   <rect x="293"
         y="621"
         width="74"
         height="32"
         class="terminal"
         rx="10"/>
   <text class="terminal" x="303" y="641">IGNORE</text>
   <a xmlns:xlink="http://www.w3.org/1999/xlink"
      xlink:href="#number"
      xlink:title="number">
      <rect x="389" y="623" width="68" height="32"/>
      <rect x="387" y="621" width="68" height="32" class="nonterminal"/>
      <text class="nonterminal" x="397" y="641">number</text>
   </a>
   <rect x="497" y="623" width="62" height="32" rx="10"/>
   <rect x="495"
         y="621"
         width="62"
         height="32"
         class="terminal"
         rx="10"/>
   <text class="terminal" x="505" y="641">LINES</text>
   <rect x="497" y="667" width="62" height="32" rx="10"/>
   <rect x="495"
         y="665"
         width="62"
         height="32"
         class="terminal"
         rx="10"/>
   <text class="terminal" x="505" y="685">ROWS</text>
   <rect x="639" y="591" width="26" height="32" rx="10"/>
   <rect x="637"
         y="589"
         width="26"
         height="32"
         class="terminal"
         rx="10"/>
   <text class="terminal" x="647" y="609">(</text>
   <a xmlns:xlink="http://www.w3.org/1999/xlink"
      xlink:href="#col_name_or_user_var"
      xlink:title="col_name_or_user_var">
      <rect x="705" y="591" width="166" height="32"/>
      <rect x="703" y="589" width="166" height="32" class="nonterminal"/>
      <text class="nonterminal" x="713" y="609">col_name_or_user_var</text>
   </a>
   <rect x="705" y="547" width="24" height="32" rx="10"/>
   <rect x="703"
         y="545"
         width="24"
         height="32"
         class="terminal"
         rx="10"/>
   <text class="terminal" x="713" y="565">,</text>
   <rect x="911" y="591" width="26" height="32" rx="10"/>
   <rect x="909"
         y="589"
         width="26"
         height="32"
         class="terminal"
         rx="10"/>
   <text class="terminal" x="919" y="609">)</text>
   <rect x="879" y="777" width="44" height="32" rx="10"/>
   <rect x="877"
         y="775"
         width="44"
         height="32"
         class="terminal"
         rx="10"/>
   <text class="terminal" x="887" y="795">SET</text>
   <a xmlns:xlink="http://www.w3.org/1999/xlink"
      xlink:href="#col_name"
      xlink:title="col_name">
      <rect x="963" y="777" width="80" height="32"/>
      <rect x="961" y="775" width="80" height="32" class="nonterminal"/>
      <text class="nonterminal" x="971" y="795">col_name</text>
   </a>
   <rect x="1063" y="777" width="30" height="32" rx="10"/>
   <rect x="1061"
         y="775"
         width="30"
         height="32"
         class="terminal"
         rx="10"/>
   <text class="terminal" x="1071" y="795">=</text>
   <a xmlns:xlink="http://www.w3.org/1999/xlink"
      xlink:href="#expr"
      xlink:title="expr">
      <rect x="1113" y="777" width="48" height="32"/>
      <rect x="1111" y="775" width="48" height="32" class="nonterminal"/>
      <text class="nonterminal" x="1121" y="795">expr</text>
   </a>
   <rect x="963" y="733" width="24" height="32" rx="10"/>
   <rect x="961"
         y="731"
         width="24"
         height="32"
         class="terminal"
         rx="10"/>
   <text class="terminal" x="971" y="751">,</text>
   <path class="line"
         d="m17 17 h2 m0 0 h10 m58 0 h10 m0 0 h10 m56 0 h10 m20 0 h10 m0 0 h140 m-170 0 h20 m150 0 h20 m-190 0 q10 0 10 10 m170 0 q0 -10 10 -10 m-180 10 v12 m170 0 v-12 m-170 12 q0 10 10 10 m150 0 q10 0 10 -10 m-160 10 h10 m130 0 h10 m-160 -10 v20 m170 0 v-20 m-170 20 v24 m170 0 v-24 m-170 24 q0 10 10 10 m150 0 q10 0 10 -10 m-160 10 h10 m114 0 h10 m0 0 h16 m40 -76 h10 m0 0 h74 m-104 0 h20 m84 0 h20 m-124 0 q10 0 10 10 m104 0 q0 -10 10 -10 m-114 10 v12 m104 0 v-12 m-104 12 q0 10 10 10 m84 0 q10 0 10 -10 m-94 10 h10 m64 0 h10 m20 -32 h10 m66 0 h10 m0 0 h10 m82 0 h10 m20 0 h10 m0 0 h90 m-120 0 h20 m100 0 h20 m-140 0 q10 0 10 10 m120 0 q0 -10 10 -10 m-130 10 v12 m120 0 v-12 m-120 12 q0 10 10 10 m100 0 q10 0 10 -10 m-110 10 h10 m80 0 h10 m-110 -10 v20 m120 0 v-20 m-120 20 v24 m120 0 v-24 m-120 24 q0 10 10 10 m100 0 q10 0 10 -10 m-110 10 h10 m74 0 h10 m0 0 h6 m20 -76 h10 m56 0 h10 m0 0 h10 m62 0 h10 m2 0 l2 0 m2 0 l2 0 m2 0 l2 0 m-824 186 l2 0 m2 0 l2 0 m2 0 l2 0 m2 0 h10 m80 0 h10 m20 0 h10 m98 0 h10 m0 0 h10 m26 0 h10 m20 0 h10 m116 0 h10 m-156 0 l20 0 m-1 0 q-9 0 -9 -10 l0 -24 q0 -10 10 -10 m136 44 l20 0 m-20 0 q10 0 10 -10 l0 -24 q0 -10 -10 -10 m-136 0 h10 m24 0 h10 m0 0 h92 m20 44 h10 m26 0 h10 m-406 0 h20 m386 0 h20 m-426 0 q10 0 10 10 m406 0 q0 -10 10 -10 m-416 10 v14 m406 0 v-14 m-406 14 q0 10 10 10 m386 0 q10 0 10 -10 m-396 10 h10 m0 0 h376 m40 -34 h10 m0 0 h306 m-336 0 h20 m316 0 h20 m-356 0 q10 0 10 10 m336 0 q0 -10 10 -10 m-346 10 v12 m336 0 v-12 m-336 12 q0 10 10 10 m316 0 q10 0 10 -10 m-326 10 h10 m102 0 h10 m0 0 h10 m44 0 h10 m0 0 h10 m110 0 h10 m22 -32 l2 0 m2 0 l2 0 m2 0 l2 0 m-1066 82 l2 0 m2 0 l2 0 m2 0 l2 0 m22 0 h10 m0 0 h1152 m-1182 0 h20 m1162 0 h20 m-1202 0 q10 0 10 10 m1182 0 q0 -10 10 -10 m-1192 10 v12 m1182 0 v-12 m-1182 12 q0 10 10 10 m1162 0 q10 0 10 -10 m-1152 10 h10 m70 0 h10 m0 0 h18 m-128 0 h20 m108 0 h20 m-148 0 q10 0 10 10 m128 0 q0 -10 10 -10 m-138 10 v24 m128 0 v-24 m-128 24 q0 10 10 10 m108 0 q10 0 10 -10 m-118 10 h10 m88 0 h10 m40 -44 h10 m0 0 h252 m-282 0 h20 m262 0 h20 m-302 0 q10 0 10 10 m282 0 q0 -10 10 -10 m-292 10 v12 m282 0 v-12 m-282 12 q0 10 10 10 m262 0 q10 0 10 -10 m-272 10 h10 m108 0 h10 m0 0 h10 m38 0 h10 m0 0 h10 m56 0 h10 m40 -32 h10 m0 0 h396 m-426 0 h20 m406 0 h20 m-446 0 q10 0 10 10 m426 0 q0 -10 10 -10 m-436 10 v12 m426 0 v-12 m-426 12 q0 10 10 10 m406 0 q10 0 10 -10 m-396 10 h10 m0 0 h120 m-150 0 h20 m130 0 h20 m-170 0 q10 0 10 10 m150 0 q0 -10 10 -10 m-160 10 v12 m150 0 v-12 m-150 12 q0 10 10 10 m130 0 q10 0 10 -10 m-140 10 h10 m110 0 h10 m20 -32 h10 m92 0 h10 m0 0 h10 m38 0 h10 m0 0 h10 m46 0 h10 m40 -32 h10 m0 0 h216 m-246 0 h20 m226 0 h20 m-266 0 q10 0 10 10 m246 0 q0 -10 10 -10 m-256 10 v12 m246 0 v-12 m-246 12 q0 10 10 10 m226 0 q10 0 10 -10 m-236 10 h10 m82 0 h10 m0 0 h10 m38 0 h10 m0 0 h10 m46 0 h10 m42 -64 l2 0 m2 0 l2 0 m2 0 l2 0 m-979 146 l2 0 m2 0 l2 0 m2 0 l2 0 m22 0 h10 m0 0 h658 m-688 0 h20 m668 0 h20 m-708 0 q10 0 10 10 m688 0 q0 -10 10 -10 m-698 10 v12 m688 0 v-12 m-688 12 q0 10 10 10 m668 0 q10 0 10 -10 m-678 10 h10 m62 0 h10 m20 0 h10 m0 0 h234 m-264 0 h20 m244 0 h20 m-284 0 q10 0 10 10 m264 0 q0 -10 10 -10 m-274 10 v12 m264 0 v-12 m-264 12 q0 10 10 10 m244 0 q10 0 10 -10 m-254 10 h10 m90 0 h10 m0 0 h10 m38 0 h10 m0 0 h10 m56 0 h10 m40 -32 h10 m0 0 h252 m-282 0 h20 m262 0 h20 m-302 0 q10 0 10 10 m282 0 q0 -10 10 -10 m-292 10 v12 m282 0 v-12 m-282 12 q0 10 10 10 m262 0 q10 0 10 -10 m-272 10 h10 m108 0 h10 m0 0 h10 m38 0 h10 m0 0 h10 m56 0 h10 m42 -64 l2 0 m2 0 l2 0 m2 0 l2 0 m-729 174 l2 0 m2 0 l2 0 m2 0 l2 0 m22 0 h10 m0 0 h294 m-324 0 h20 m304 0 h20 m-344 0 q10 0 10 10 m324 0 q0 -10 10 -10 m-334 10 v12 m324 0 v-12 m-324 12 q0 10 10 10 m304 0 q10 0 10 -10 m-314 10 h10 m74 0 h10 m0 0 h10 m68 0 h10 m20 0 h10 m62 0 h10 m-102 0 h20 m82 0 h20 m-122 0 q10 0 10 10 m102 0 q0 -10 10 -10 m-112 10 v24 m102 0 v-24 m-102 24 q0 10 10 10 m82 0 q10 0 10 -10 m-92 10 h10 m62 0 h10 m60 -76 h10 m26 0 h10 m20 0 h10 m166 0 h10 m-206 0 l20 0 m-1 0 q-9 0 -9 -10 l0 -24 q0 -10 10 -10 m186 44 l20 0 m-20 0 q10 0 10 -10 l0 -24 q0 -10 -10 -10 m-186 0 h10 m24 0 h10 m0 0 h142 m20 44 h10 m26 0 h10 m-338 0 h20 m318 0 h20 m-358 0 q10 0 10 10 m338 0 q0 -10 10 -10 m-348 10 v14 m338 0 v-14 m-338 14 q0 10 10 10 m318 0 q10 0 10 -10 m-328 10 h10 m0 0 h308 m22 -34 l2 0 m2 0 l2 0 m2 0 l2 0 m-142 186 l2 0 m2 0 l2 0 m2 0 l2 0 m22 0 h10 m44 0 h10 m20 0 h10 m80 0 h10 m0 0 h10 m30 0 h10 m0 0 h10 m48 0 h10 m-238 0 l20 0 m-1 0 q-9 0 -9 -10 l0 -24 q0 -10 10 -10 m218 44 l20 0 m-20 0 q10 0 10 -10 l0 -24 q0 -10 -10 -10 m-218 0 h10 m24 0 h10 m0 0 h174 m-322 44 h20 m322 0 h20 m-362 0 q10 0 10 10 m342 0 q0 -10 10 -10 m-352 10 v14 m342 0 v-14 m-342 14 q0 10 10 10 m322 0 q10 0 10 -10 m-332 10 h10 m0 0 h312 m23 -34 h-3"/>
   <polygon points="1219 791 1227 787 1227 795"/>
   <polygon points="1219 791 1211 787 1211 795"/>
</svg>
